<svg xmlns="http://www.w3.org/2000/svg" width="100" height="100" viewBox="0 0 100 100">
  <!-- 书架框架 -->
  <rect x="15" y="15" width="70" height="70" rx="3" ry="3" fill="none" stroke="#1f2937" stroke-width="2"/>
  
  <!-- 书架隔板 -->
  <line x1="15" y1="40" x2="85" y2="40" stroke="#1f2937" stroke-width="2"/>
  <line x1="15" y1="65" x2="85" y2="65" stroke="#1f2937" stroke-width="2"/>
  
  <!-- 第一层书架 -->
  <!-- 书本1 - 蓝色 -->
  <rect x="20" y="20" width="10" height="18" rx="1" ry="1" fill="#3b82f6"/>
  
  <!-- 书本2 - 绿色 -->
  <rect x="32" y="17" width="8" height="21" rx="1" ry="1" fill="#10b981"/>
  
  <!-- 书本3 - 紫色 -->
  <rect x="42" y="19" width="12" height="19" rx="1" ry="1" fill="#8b5cf6"/>
  
  <!-- 书本4 - 红色 -->
  <rect x="56" y="18" width="9" height="20" rx="1" ry="1" fill="#ef4444"/>
  
  <!-- 书本5 - 黄色 -->
  <rect x="67" y="20" width="11" height="18" rx="1" ry="1" fill="#f59e0b"/>
  
  <!-- 第二层书架 -->
  <!-- 书本6 - 红色 -->
  <rect x="20" y="42" width="12" height="21" rx="1" ry="1" fill="#ef4444"/>
  
  <!-- 书本7 - 蓝色 -->
  <rect x="34" y="45" width="10" height="18" rx="1" ry="1" fill="#3b82f6"/>
  
  <!-- 书本8 - 黄色 -->
  <rect x="46" y="43" width="8" height="20" rx="1" ry="1" fill="#f59e0b"/>
  
  <!-- 书本9 - 绿色 -->
  <rect x="56" y="44" width="11" height="19" rx="1" ry="1" fill="#10b981"/>
  
  <!-- 书本10 - 紫色 -->
  <rect x="69" y="42" width="9" height="21" rx="1" ry="1" fill="#8b5cf6"/>
  
  <!-- 第三层书架 -->
  <!-- 书本11 - 绿色 -->
  <rect x="22" y="67" width="14" height="16" rx="1" ry="1" fill="#10b981"/>
  
  <!-- 书本12 - 紫色 -->
  <rect x="38" y="69" width="10" height="14" rx="1" ry="1" fill="#8b5cf6"/>
  
  <!-- 书本13 - 蓝色 -->
  <rect x="50" y="67" width="12" height="16" rx="1" ry="1" fill="#3b82f6"/>
  
  <!-- 书本14 - 黄色 -->
  <rect x="64" y="68" width="15" height="15" rx="1" ry="1" fill="#f59e0b"/>
  
  <!-- 书本细节 - 书脊线条 -->
  <line x1="23" y1="22" x2="23" y2="38" stroke="#ffffff" stroke-width="1" stroke-opacity="0.5"/>
  <line x1="36" y1="19" x2="36" y2="38" stroke="#ffffff" stroke-width="1" stroke-opacity="0.5"/>
  <line x1="48" y1="21" x2="48" y2="38" stroke="#ffffff" stroke-width="1" stroke-opacity="0.5"/>
  <line x1="60" y1="20" x2="60" y2="38" stroke="#ffffff" stroke-width="1" stroke-opacity="0.5"/>
  <line x1="72" y1="22" x2="72" y2="38" stroke="#ffffff" stroke-width="1" stroke-opacity="0.5"/>
  
  <line x1="26" y1="44" x2="26" y2="63" stroke="#ffffff" stroke-width="1" stroke-opacity="0.5"/>
  <line x1="39" y1="47" x2="39" y2="63" stroke="#ffffff" stroke-width="1" stroke-opacity="0.5"/>
  <line x1="50" y1="45" x2="50" y2="63" stroke="#ffffff" stroke-width="1" stroke-opacity="0.5"/>
  <line x1="61" y1="46" x2="61" y2="63" stroke="#ffffff" stroke-width="1" stroke-opacity="0.5"/>
  <line x1="73" y1="44" x2="73" y2="63" stroke="#ffffff" stroke-width="1" stroke-opacity="0.5"/>
  
  <line x1="29" y1="69" x2="29" y2="83" stroke="#ffffff" stroke-width="1" stroke-opacity="0.5"/>
  <line x1="43" y1="71" x2="43" y2="83" stroke="#ffffff" stroke-width="1" stroke-opacity="0.5"/>
  <line x1="56" y1="69" x2="56" y2="83" stroke="#ffffff" stroke-width="1" stroke-opacity="0.5"/>
  <line x1="71" y1="70" x2="71" y2="83" stroke="#ffffff" stroke-width="1" stroke-opacity="0.5"/>
</svg> 