<svg xmlns="http://www.w3.org/2000/svg" width="100" height="100" viewBox="0 0 100 100">
  <!-- 背景圆 -->
  <circle cx="50" cy="50" r="40" fill="#f3f4f6"/>
  
  <!-- 用户头像 -->
  <circle cx="50" cy="40" r="15" fill="#3b82f6"/>
  <circle cx="50" cy="35" r="5" fill="#f9fafb"/>
  <path d="M35,55 Q50,70 65,55" fill="#3b82f6"/>
  
  <!-- 用户信息卡片 -->
  <rect x="25" y="60" width="50" height="25" rx="5" ry="5" fill="#ffffff" stroke="#d1d5db" stroke-width="1"/>
  
  <!-- 信息线条 -->
  <line x1="35" y1="68" x2="65" y2="68" stroke="#e5e7eb" stroke-width="2"/>
  <line x1="35" y1="76" x2="55" y2="76" stroke="#e5e7eb" stroke-width="2"/>
  
  <!-- 设置图标 -->
  <circle cx="75" cy="25" r="10" fill="#ffffff" stroke="#3b82f6" stroke-width="1"/>
  <circle cx="75" cy="25" r="5" fill="none" stroke="#3b82f6" stroke-width="1"/>
  <line x1="75" y1="16" x2="75" y2="18" stroke="#3b82f6" stroke-width="1"/>
  <line x1="75" y1="32" x2="75" y2="34" stroke="#3b82f6" stroke-width="1"/>
  <line x1="66" y1="25" x2="68" y2="25" stroke="#3b82f6" stroke-width="1"/>
  <line x1="82" y1="25" x2="84" y2="25" stroke="#3b82f6" stroke-width="1"/>
  <line x1="69" y1="19" x2="70" y2="20" stroke="#3b82f6" stroke-width="1"/>
  <line x1="80" y1="30" x2="81" y2="31" stroke="#3b82f6" stroke-width="1"/>
  <line x1="69" y1="31" x2="70" y2="30" stroke="#3b82f6" stroke-width="1"/>
  <line x1="80" y1="20" x2="81" y2="19" stroke="#3b82f6" stroke-width="1"/>
  
  <!-- 阅读统计图标 -->
  <rect x="20" y="25" width="15" height="15" rx="2" ry="2" fill="#ffffff" stroke="#10b981" stroke-width="1"/>
  <line x1="23" y1="30" x2="32" y2="30" stroke="#10b981" stroke-width="1"/>
  <line x1="23" y1="33" x2="29" y2="33" stroke="#10b981" stroke-width="1"/>
  <line x1="23" y1="36" x2="32" y2="36" stroke="#10b981" stroke-width="1"/>
  
  <!-- 书签图标 -->
  <path d="M25,85 L30,85 L30,95 L27.5,92 L25,95 Z" fill="#ef4444"/>
  
  <!-- 成就徽章 -->
  <circle cx="75" cy="75" r="8" fill="#f59e0b"/>
  <text x="75" y="78" font-family="Arial, sans-serif" font-size="8" font-weight="bold" text-anchor="middle" fill="#ffffff">★</text>
</svg> 