<svg xmlns="http://www.w3.org/2000/svg" width="100" height="100" viewBox="0 0 100 100">
  <!-- 中心圆圈 - 代表社区中心 -->
  <circle cx="50" cy="50" r="15" fill="#3b82f6"/>
  
  <!-- 用户图标1 -->
  <circle cx="25" cy="30" r="10" fill="#10b981"/>
  <circle cx="25" cy="27" r="3" fill="#f9fafb"/>
  <path d="M15,36 Q25,45 35,36" fill="#10b981"/>
  
  <!-- 用户图标2 -->
  <circle cx="75" cy="30" r="10" fill="#8b5cf6"/>
  <circle cx="75" cy="27" r="3" fill="#f9fafb"/>
  <path d="M65,36 Q75,45 85,36" fill="#8b5cf6"/>
  
  <!-- 用户图标3 -->
  <circle cx="25" cy="70" r="10" fill="#f59e0b"/>
  <circle cx="25" cy="67" r="3" fill="#f9fafb"/>
  <path d="M15,76 Q25,85 35,76" fill="#f59e0b"/>
  
  <!-- 用户图标4 -->
  <circle cx="75" cy="70" r="10" fill="#ef4444"/>
  <circle cx="75" cy="67" r="3" fill="#f9fafb"/>
  <path d="M65,76 Q75,85 85,76" fill="#ef4444"/>
  
  <!-- 连接线 - 代表社区互动 -->
  <line x1="33" y1="35" x2="42" y2="42" stroke="#d1d5db" stroke-width="2" stroke-dasharray="2,2"/>
  <line x1="67" y1="35" x2="58" y2="42" stroke="#d1d5db" stroke-width="2" stroke-dasharray="2,2"/>
  <line x1="33" y1="65" x2="42" y2="58" stroke="#d1d5db" stroke-width="2" stroke-dasharray="2,2"/>
  <line x1="67" y1="65" x2="58" y2="58" stroke="#d1d5db" stroke-width="2" stroke-dasharray="2,2"/>
  
  <!-- 书本图标 - 代表阅读分享 -->
  <rect x="46" cy="46" width="8" height="12" rx="1" ry="1" fill="#f9fafb" stroke="#3b82f6" stroke-width="1"/>
  
  <!-- 对话气泡 - 代表讨论 -->
  <path d="M50,35 Q60,35 60,42 Q60,49 50,49 L48,53 L46,49 Q40,49 40,42 Q40,35 50,35" fill="#f9fafb" stroke="#3b82f6" stroke-width="1"/>
  
  <!-- 点赞图标 - 代表互动 -->
  <path d="M50,65 L53,62 Q55,60 57,62 Q59,64 57,66 L50,73 L43,66 Q41,64 43,62 Q45,60 47,62 Z" fill="#f9fafb" stroke="#3b82f6" stroke-width="1"/>
  
  <!-- 社区光环 -->
  <circle cx="50" cy="50" r="40" fill="none" stroke="#3b82f6" stroke-width="1" stroke-dasharray="3,3"/>
</svg> 